<?xml version="1.0" encoding="UTF-8"?>
<svg xmlns="http://www.w3.org/2000/svg" version="1.1" viewBox="0 0 1204.72 311.81">
  <defs>
    <style>
      .cls-1 {
        fill: #a7bbc5;
      }

      .cls-2 {
        fill: #c51718;
      }
    </style>
  </defs>
  <!-- Generator: Adobe Illustrator 28.7.1, SVG Export Plug-In . SVG Version: 1.2.0 Build 142)  -->
  <g>
    <g id="Ebene_1">
      <path class="cls-2" d="M208.27,268.81L107.75,88.26l-22.37,93.89c-11.97,49.47-1.58,77.83,23.63,79.09l-.95,3.46H19.84l.95-3.46c19.85-.95,39.7-19.53,55.14-80.66l18.91-75.94c6.93-28.36,1.26-56.09-25.84-57.03l.95-3.47h92.32l73.41,127.92,11.97-51.04c10.4-44.74,6.62-69.32-21.74-73.41l.94-3.47h82.55l-.95,3.47c-23.32,1.57-40.65,29.93-51.67,74.04l-36.23,147.14h-12.29Z"/>
      <path class="cls-2" d="M331.45,270.7c-40.02,0-67.11-28.04-67.11-62.39,0-50.73,45.06-94.52,91.06-94.52,41.91,0,69.63,28.67,69.63,63.02,0,50.1-45.37,93.9-93.58,93.9ZM359.18,119.46c-22.69,0-42.22,81.92-42.22,121.62,0,14.49,3.47,23.95,10.71,23.95,25.21,0,43.48-83.5,43.48-117.52,0-17.01-3.78-28.04-11.97-28.04Z"/>
      <path class="cls-2" d="M453.39,266.92c2.52-35.29,1.58-78.46,0-102.72-1.57-23-10.71-30.56-18.27-30.56l.63-2.84,64.59-17.01,1.89.94c6.93,31.19,9.14,80.98,5.99,122.57,28.67-19.22,43.48-36.24,43.48-50.1,0-16.38-16.7-28.04-16.7-46.32,0-14.81,11.97-26.78,29.3-26.78,18.28,0,30.56,11.03,30.56,28.67,0,33.4-65.85,99.25-128.24,126.03l-13.23-1.89Z"/>
      <path class="cls-2" d="M626.37,155.06c5.04-18.28-5.67-22.05-14.18-21.43l.63-2.84,80.66-16.07,2.21.94-11.97,40.02-21.11,71.52c-4.1,13.86-3.78,20.48,4.1,20.48,5.36,0,11.66-2.84,18.28-10.71l3.47,3.15c-17.64,20.48-34.66,28.67-54.83,28.67-23.95,0-35.6-13.55-26.47-45.37l19.22-68.37ZM675.2,34.7c17.96,0,32.77,14.18,32.77,32.45s-16.07,33.71-34.34,33.71-32.45-14.18-32.45-32.45,16.07-33.72,34.03-33.72Z"/>
      <path class="cls-2" d="M764.37,270.7c-33.08,0-59.87-24.89-59.87-61.44,0-46.95,38.76-95.47,95.79-95.47,30.88,0,51.99,16.07,51.99,34.34,0,12.92-10.71,21.74-22.69,21.74-10.08,0-19.22-5.98-22.69-17.96-3.47-12.29-2.52-31.83-14.18-31.83-17.01,0-35.29,28.67-35.29,63.02,0,30.88,17.01,49.78,42.85,49.78,13.86,0,27.1-5.99,34.03-15.76l4.41,2.21c-18.27,35.29-48.21,51.36-74.36,51.36Z"/>
      <path class="cls-2" d="M854.79,208.94c0-45.37,39.7-95.16,97.05-95.16,27.73,0,40.65,12.6,40.65,27.1,0,22.69-31.19,49.47-84.44,62.07,5.04,21.11,19.06,33.59,35.67,36.15,66.4,10.24,98.33-45.02,98.33-45.02-17.81,28.25-44.77,76.61-106.67,76.61-28.91,0-80.58-7.63-80.58-61.76ZM907.1,197.28c26.78-9.14,40.65-34.03,40.65-56.72,0-11.66-4.1-18.91-9.77-18.91-12.92,0-31.51,34.03-31.51,66.48,0,3.15.32,6.3.63,9.14Z"/>
      <path class="cls-1" d="M1174.24,72.13c-8.74-8.74-20.8-14.14-34.14-14.14s-25.4,5.4-34.14,14.14l-15.6,15.6c-2.3-4.84-5.34-9.27-9.05-13.06l-39.07-39.98-10.76,10.52c-8.84,8.64-14.38,20.64-14.53,33.97-.15,13.33,5.11,25.46,13.75,34.3l16.76,17.15-25.01,25.01,10.64,10.64c8.74,8.74,20.81,14.14,34.14,14.14s25.4-5.4,34.14-14.14l83.51-83.51-10.64-10.64ZM1034.46,109.82c-8.03-8.22-12.39-19.08-12.25-30.57.13-11.49,4.73-22.25,12.95-30.28l7.01-6.85,35.41,36.23c3.83,3.91,6.79,8.44,8.86,13.33l-19.99,19.99.3.3c-1.67,1.29-3.27,2.67-4.76,4.16l-10.81,10.81-16.72-17.11ZM1155.51,83.39c-2.86,0-5.18-2.32-5.18-5.18s2.32-5.18,5.18-5.18,5.18,2.32,5.18,5.18-2.32,5.18-5.18,5.18Z"/>
      <path class="cls-2" d="M1097.54,74.67c8.64,8.84,13.9,20.97,13.75,34.3-.15,13.33-5.69,25.34-14.53,33.97l-10.76,10.52-39.07-39.98c-8.64-8.84-13.9-20.97-13.75-34.3.15-13.33,5.69-25.34,14.53-33.97l10.76-10.52,39.07,39.98Z"/>
    </g>
  </g>
</svg>