<?xml version="1.0" encoding="UTF-8"?>
<svg xmlns="http://www.w3.org/2000/svg" version="1.1" viewBox="0 0 99.21 85.04">
  <defs>
    <style>
      .cls-1 {
        fill: #a7bbc5;
      }

      .cls-2 {
        fill: #c51718;
      }
    </style>
  </defs>
  <!-- Generator: Adobe Illustrator 28.7.1, SVG Export Plug-In . SVG Version: 1.2.0 Build 142)  -->
  <g>
    <g id="Ebene_1">
      <g>
        <path class="cls-1" d="M88.05,23.94c-4.58-4.58-10.91-7.41-17.9-7.41s-13.32,2.83-17.9,7.41l-8.16,8.16c-1.21-2.54-2.82-4.84-4.76-6.83L18.85,4.32l-5.64,5.52c-4.63,4.53-7.54,10.82-7.62,17.81-.08,6.99,2.68,13.35,7.21,17.98l8.79,8.99-13.11,13.11,5.58,5.58c4.58,4.58,10.91,7.41,17.9,7.41s13.32-2.83,17.9-7.41l43.79-43.79-5.58-5.58ZM14.76,43.7c-4.21-4.31-6.49-10-6.43-16.03.07-6.03,2.48-11.67,6.79-15.88l3.68-3.59,18.56,18.99c2,2.05,3.57,4.42,4.65,6.98l-10.49,10.49.16.16c-.88.67-1.71,1.4-2.49,2.18l-5.67,5.67-8.77-8.97ZM78.23,29.84c-1.5,0-2.72-1.22-2.72-2.72s1.22-2.72,2.72-2.72,2.72,1.22,2.72,2.72-1.22,2.72-2.72,2.72Z"/>
        <path class="cls-2" d="M47.84,25.28c4.53,4.63,7.29,10.99,7.21,17.98-.08,6.99-2.99,13.28-7.62,17.81l-5.64,5.52-20.49-20.96c-4.53-4.63-7.29-10.99-7.21-17.98s2.99-13.28,7.62-17.81l5.64-5.52,20.49,20.96Z"/>
      </g>
    </g>
  </g>
</svg>